<?xml version="1.0" encoding="utf-8"?>
<svg viewBox="4.5984 31.168 981.917 574.884" width="981.917" height="574.884" xmlns="http://www.w3.org/2000/svg">
  <g id="OBJECTS" transform="matrix(0.9999999999999999, 0, 0, 0.9999999999999999, 123.83739655967644, 0.0000010000001111620804)">
    <g>
      <defs>
        <rect id="SVGID_1_" x="0.269" width="750.231" height="500"/>
      </defs>
      <clipPath id="SVGID_00000114763362021417523800000001237877017077462406_">
        <rect x="0.269" width="750.231" height="500" style="overflow: visible;"/>
      </clipPath>
      <g style="opacity:0.4;clip-path:url(#SVGID_00000114763362021417523800000001237877017077462406_);">
        <path style="fill: none; fill-rule: nonzero; paint-order: fill markers; stroke-width: 2px; stroke-miterlimit: 24.58; stroke: rgb(255, 255, 255);" d="&#10;&#9;&#9;&#9;&#9;M-4.302,277.02c13.693-4.623,27.867-10.79,42.38-13.026c19.091-2.951,38.318-1.36,57.507-1.118&#10;&#9;&#9;&#9;&#9;c22.419,0.3,42.71,6.905,64.554,12.289c1.396,0.346,2.791,0.692,4.187,1.038c53.925,13.453,106.883,29.488,162.155,33.535&#10;&#9;&#9;&#9;&#9;c32.492,2.375,65.198,2.997,97.709,0.104c32.921-2.928,64.788-11.101,96.235-22.133h0.01c0.01,0,0.01-0.012,0.019-0.012&#10;&#9;&#9;&#9;&#9;c7.964-2.79,15.899-5.764,23.815-8.888c51.914-20.485,102.052-46.849,155.596-61.386c15.392-4.185,38.652-7.412,54.434-6.294&#10;&#9;&#9;&#9;&#9;c0.995,0.069-1.581,0.127,0,0.242"/>
        <path style="fill: none; fill-rule: nonzero; paint-order: fill markers; stroke-width: 2px; stroke-miterlimit: 24.58; stroke: rgb(255, 255, 255);" d="&#10;&#9;&#9;&#9;&#9;M-4.302,285.572c5.461-1.985,11.097-4.046,16.749-5.926c9.095-3.055,18.767-5.283,28.878-6.216&#10;&#9;&#9;&#9;&#9;c19.829-1.83,40.475,0.226,61.571,0.374c23.432,0.203,45.441,4.858,68.928,7.122c1.467,0.142,2.933,0.301,4.4,0.443&#10;&#9;&#9;&#9;&#9;c4.772,0.494,9.539,1.006,14.315,1.35c27.989,2.015,55.758,6.999,82.288,16.364c24.432,8.625,43.283,19.07,67.747,22.563&#10;&#9;&#9;&#9;&#9;c30.838,4.403,62.817,4.595,94.715,1.361c31.852-3.19,62.926-11.619,93.276-22.665c0,0,0.009,0,0.01-0.001&#10;&#9;&#9;&#9;&#9;c0.01-0.001,0.011-0.011,0.021-0.012c7.733-2.816,15.423-5.784,23.046-8.916c28.755-11.817,56.08-25.132,81.193-36.116&#10;&#9;&#9;&#9;&#9;c22.593-9.882,45.12-19.728,68.567-26.707c2.245-0.673,4.644-1.321,7.155-1.933c14.327-3.518,32.302-5.96,45.567-5.225&#10;&#9;&#9;&#9;&#9;c0.912,0.051-1.238,0.1,0.176,0.195"/>
        <path style="fill: none; fill-rule: nonzero; paint-order: fill markers; stroke-width: 2px; stroke-miterlimit: 24.58; stroke: rgb(255, 255, 255);" d="&#10;&#9;&#9;&#9;&#9;M-4.302,294.123c5.783-2.234,11.85-4.39,17.881-6.284c9.431-2.96,19.825-4.541,30.992-4.975&#10;&#9;&#9;&#9;&#9;c20.545-0.797,42.632,1.812,65.635,1.866c24.446,0.106,48.125,2.894,73.302,1.955c1.536-0.057,3.074-0.09,4.613-0.152&#10;&#9;&#9;&#9;&#9;c4.969-0.154,9.951-0.316,14.923-0.771c30.118-2.761,59.758,0.472,86.812,13.464c25.561,12.275,39.754,28.978,64.812,34.327&#10;&#9;&#9;&#9;&#9;c29.16,6.224,60.435,6.194,91.721,2.617c30.783-3.452,61.064-12.137,90.317-23.196c0.001,0,0.009-0.001,0.01-0.001&#10;&#9;&#9;&#9;&#9;c0.01-0.001,0.012-0.011,0.022-0.012c7.502-2.842,14.944-5.81,22.277-8.945c29.214-12.489,56.091-26.236,78.258-36.37&#10;&#9;&#9;&#9;&#9;c21.74-9.938,43.137-20.548,65.666-27.891c2.178-0.718,4.487-1.407,6.893-2.057c13.86-3.789,30.995-6.483,44.117-5.965&#10;&#9;&#9;&#9;&#9;c0.829,0.033-0.895,0.073,0.352,0.148"/>
        <path style="fill: none; fill-rule: nonzero; paint-order: fill markers; stroke-width: 2px; stroke-miterlimit: 24.58; stroke: rgb(255, 255, 255);" d="&#10;&#9;&#9;&#9;&#9;M-4.302,302.674c6.104-2.484,12.599-4.746,19.014-6.641c9.76-2.883,20.88-3.494,33.106-3.733&#10;&#9;&#9;&#9;&#9;c21.25-0.415,44.789,3.399,69.699,3.359c25.459,0.009,50.798,1.003,77.676-3.212c1.604-0.251,3.215-0.481,4.826-0.746&#10;&#9;&#9;&#9;&#9;c5.165-0.801,10.365-1.663,15.53-2.893c32.264-7.684,63.734-5.984,91.336,10.565c26.669,15.99,36.221,38.758,61.877,46.091&#10;&#9;&#9;&#9;&#9;c27.49,7.858,58.054,7.792,88.728,3.874c29.714-3.714,59.201-12.655,87.358-23.728c0.001-0.001,0.008-0.001,0.01-0.002&#10;&#9;&#9;&#9;&#9;c0.01-0.002,0.013-0.01,0.023-0.012c7.271-2.868,14.463-5.842,21.508-8.973c29.664-13.182,56.084-27.39,75.322-36.623&#10;&#9;&#9;&#9;&#9;c20.881-10.022,41.171-21.324,62.765-29.075c2.112-0.758,4.33-1.492,6.631-2.18c13.393-4.06,29.685-6.991,42.666-6.704&#10;&#9;&#9;&#9;&#9;c0.745,0.016-0.551,0.046,0.528,0.1"/>
        <path style="fill: none; fill-rule: nonzero; paint-order: fill markers; stroke-width: 2px; stroke-miterlimit: 24.58; stroke: rgb(255, 255, 255);" d="&#10;&#9;&#9;&#9;&#9;M-4.302,311.226c6.425-2.733,13.347-5.104,20.146-6.998c10.089-2.81,21.932-3.151,35.22-2.492&#10;&#9;&#9;&#9;&#9;c21.962,1.09,46.946,4.985,73.763,4.851c26.473-0.087,53.485-0.828,82.05-8.378c1.673-0.442,3.357-0.871,5.039-1.341&#10;&#9;&#9;&#9;&#9;c5.362-1.449,10.773-3.028,16.138-5.015c34.371-12.725,67.679-12.395,95.86,7.665c27.746,19.75,32.719,48.395,58.941,57.856&#10;&#9;&#9;&#9;&#9;c25.855,9.328,55.673,9.39,85.734,5.131c28.645-3.975,57.339-13.173,84.399-24.259c0.002-0.001,0.008-0.002,0.01-0.003&#10;&#9;&#9;&#9;&#9;c0.01-0.003,0.015-0.01,0.024-0.012c7.04-2.894,13.979-5.881,20.739-9.001c30.106-13.898,56.055-28.596,72.386-36.877&#10;&#9;&#9;&#9;&#9;c20.007-10.145,39.189-22.143,59.865-30.259c2.045-0.803,4.173-1.578,6.369-2.304c12.927-4.331,28.381-7.845,41.216-7.444&#10;&#9;&#9;&#9;&#9;c0.661,0.021-0.208,0.019,0.704,0.053"/>
        <path style="fill: none; fill-rule: nonzero; paint-order: fill markers; stroke-width: 2px; stroke-miterlimit: 24.58; stroke: rgb(255, 255, 255);" d="&#10;&#9;&#9;&#9;&#9;M-4.302,319.777c6.746-2.983,14.092-5.475,21.278-7.355c10.412-2.757,22.99-2.497,37.334-1.251&#10;&#9;&#9;&#9;&#9;c22.678,1.971,49.103,6.572,77.827,6.343c27.486-0.184,56.197-2.615,86.424-13.545c1.743-0.63,3.498-1.262,5.252-1.935&#10;&#9;&#9;&#9;&#9;c5.559-2.096,11.171-4.405,16.745-7.136c36.416-17.843,71.591-18.777,100.383,4.765c28.79,23.54,29.282,57.884,56.006,69.62&#10;&#9;&#9;&#9;&#9;c24.281,10.663,53.292,10.988,82.741,6.388c27.576-4.237,55.477-13.691,81.44-24.791c0.002-0.001,0.008-0.002,0.01-0.003&#10;&#9;&#9;&#9;&#9;c0.009-0.003,0.016-0.009,0.025-0.012c6.809-2.92,13.493-5.924,19.97-9.03c30.535-14.639,55.999-29.859,69.45-37.13&#10;&#9;&#9;&#9;&#9;c19.106-10.327,37.19-23.007,56.964-31.443c1.976-0.852,4.016-1.664,6.107-2.428c12.46-4.602,27.063-7.936,39.765-8.184&#10;&#9;&#9;&#9;&#9;c0.578-0.011,0.135-0.008,0.88,0.006"/>
        <path style="fill: none; fill-rule: nonzero; paint-order: fill markers; stroke-width: 2px; stroke-miterlimit: 24.58; stroke: rgb(255, 255, 255);" d="&#10;&#9;&#9;&#9;&#9;M-4.302,328.328c7.067-3.232,14.84-5.833,22.411-7.712c10.741-2.682,24.053-1.866,39.448-0.009&#10;&#9;&#9;&#9;&#9;c23.402,2.822,51.26,8.158,81.891,7.836c28.5-0.281,58.938-4.372,90.798-18.712c1.815-0.817,3.64-1.653,5.464-2.53&#10;&#9;&#9;&#9;&#9;c5.755-2.744,11.56-5.787,17.352-9.258c38.399-23.005,75.474-25.142,104.907,1.866c29.803,27.348,25.945,67.223,53.071,81.384&#10;&#9;&#9;&#9;&#9;c22.787,11.896,50.911,12.586,79.747,7.645c26.506-4.499,53.615-14.209,78.481-25.322c0.003-0.001,0.007-0.003,0.01-0.004&#10;&#9;&#9;&#9;&#9;c0.009-0.004,0.017-0.009,0.026-0.013c6.578-2.946,13.005-5.973,19.201-9.058c30.949-15.408,55.907-31.184,66.515-37.384&#10;&#9;&#9;&#9;&#9;c18.148-10.608,35.207-23.827,54.063-32.627c1.908-0.896,3.858-1.749,5.845-2.551c11.993-4.873,25.753-8.348,38.315-8.924&#10;&#9;&#9;&#9;&#9;c0.494-0.023,0.478-0.035,1.056-0.041"/>
        <path style="fill: none; fill-rule: nonzero; paint-order: fill markers; stroke-width: 2px; stroke-miterlimit: 24.58; stroke: rgb(255, 255, 255);" d="&#10;&#9;&#9;&#9;&#9;M-4.302,336.88c7.388-3.481,15.589-6.19,23.543-8.069c45.512-10.721,141.423,45.506,246.326-27.822&#10;&#9;&#9;&#9;&#9;c40.327-28.189,79.333-31.5,109.431-1.034c30.791,31.167,22.739,76.418,50.136,93.148&#10;&#9;&#9;&#9;&#9;c73.08,44.626,213.388-50.102,234.324-63.693c18.818-12.208,36.532-27.459,56.745-36.486c11.907-5.314,25.31-8.922,38.096-9.753"/>
        <path style="fill: none; fill-rule: nonzero; paint-order: fill markers; stroke-width: 2px; stroke-miterlimit: 24.58; stroke: rgb(255, 255, 255);" d="&#10;&#9;&#9;&#9;&#9;M754.299,273.923c-9.47,0.747-19.288,2.99-28.478,6.041c-3.899,1.294-7.725,2.753-11.432,4.354&#10;&#9;&#9;&#9;&#9;c-21.348,9.223-40.322,24.254-60.192,36.983c-1.024,0.655-2.247,1.453-3.663,2.362c-33.4,21.451-109.226,73.106-172.222,81.871&#10;&#9;&#9;&#9;&#9;c-0.002,0-0.006,0-0.008,0.001c-23.944,3.899-47.14,3.031-66.697-6.751c-27.718-13.863-24.853-53.595-55.072-81.978&#10;&#9;&#9;&#9;&#9;c-7.041-6.566-14.474-11.608-22.204-15.238c-25.025-11.731-52.983-8.727-81.473,6.758c-7.204,3.758-14.358,6.917-21.456,9.572&#10;&#9;&#9;&#9;&#9;c-0.971,0.366-1.939,0.723-2.907,1.071c-47.62,18.102-93.066,12.06-132.571,5.54c-30.335-5.007-56.378-10.644-75.396-6.767&#10;&#9;&#9;&#9;&#9;c-0.681,0.139-1.352,0.287-2.014,0.451c-7.724,1.913-15.668,4.618-22.817,8.052"/>
        <path style="fill: none; fill-rule: nonzero; paint-order: fill markers; stroke-width: 2px; stroke-miterlimit: 24.58; stroke: rgb(255, 255, 255);" d="&#10;&#9;&#9;&#9;&#9;M754.299,264.674c-9.928,0.909-20.246,3.429-29.741,6.561c-4.077,1.344-8.083,2.843-11.983,4.477&#10;&#9;&#9;&#9;&#9;c-22.482,9.419-42.715,24.23-63.638,37.481c-1.12,0.707-2.402,1.536-3.849,2.456c-44.741,28.43-118.461,81.503-177.186,91.428&#10;&#9;&#9;&#9;&#9;c-0.002,0-0.007,0-0.008,0.001c-24.469,5.151-48.632,5.869-69.811-2.609c-27.88-11.161-30.276-45.307-60.008-70.808&#10;&#9;&#9;&#9;&#9;c-6.983-5.99-14.3-10.755-21.794-14.471c-24.147-11.936-49.993-12.935-76.128-3.523c-6.693,2.123-13.333,3.749-19.928,4.989&#10;&#9;&#9;&#9;&#9;c-0.9,0.174-1.796,0.343-2.694,0.504c-43.542,9.613-85.864-0.584-124.659-8.147c-28.586-5.572-53.903-10.163-73.134-5.898&#10;&#9;&#9;&#9;&#9;c-0.657,0.146-1.307,0.297-1.948,0.464c-7.493,1.947-15.182,4.649-22.091,8.034"/>
        <path style="fill: none; fill-rule: nonzero; paint-order: fill markers; stroke-width: 2px; stroke-miterlimit: 24.58; stroke: rgb(255, 255, 255);" d="&#10;&#9;&#9;&#9;&#9;M754.299,255.426c-10.387,1.07-21.204,3.868-31.004,7.082c-4.254,1.393-8.442,2.932-12.534,4.599&#10;&#9;&#9;&#9;&#9;c-23.616,9.615-45.109,24.206-67.085,37.979c-1.215,0.759-2.559,1.618-4.036,2.549c-56.108,35.367-127.696,89.899-182.15,100.984&#10;&#9;&#9;&#9;&#9;c-0.001,0-0.007,0-0.009,0.001c-24.994,6.404-50.048,8.602-72.925,1.533c-27.932-8.632-35.768-36.951-64.944-59.638&#10;&#9;&#9;&#9;&#9;c-6.942-5.398-14.125-9.901-21.384-13.703c-23.268-12.14-47.002-17.142-70.784-13.805c-6.182,0.488-12.308,0.581-18.4,0.406&#10;&#9;&#9;&#9;&#9;c-0.829-0.017-1.654-0.036-2.481-0.062c-39.464,1.124-78.664-13.181-116.747-21.833c-26.841-6.098-51.431-9.697-70.871-5.03&#10;&#9;&#9;&#9;&#9;c-0.633,0.152-1.261,0.307-1.882,0.477c-7.262,1.981-14.695,4.679-21.364,8.016"/>
        <path style="fill: none; fill-rule: nonzero; paint-order: fill markers; stroke-width: 2px; stroke-miterlimit: 24.58; stroke: rgb(255, 255, 255);" d="&#10;&#9;&#9;&#9;&#9;M754.299,246.177c-10.845,1.232-22.162,4.308-32.267,7.603c-4.432,1.443-8.8,3.022-13.085,4.721&#10;&#9;&#9;&#9;&#9;c-24.75,9.812-47.502,24.182-70.531,38.476c-1.31,0.811-2.717,1.699-4.223,2.643c-67.5,42.265-136.93,98.296-187.114,110.541&#10;&#9;&#9;&#9;&#9;c-0.001,0-0.008,0-0.009,0c-25.519,7.656-51.416,11.204-76.039,5.674c-27.922-6.271-41.279-28.576-69.881-48.468&#10;&#9;&#9;&#9;&#9;c-6.905-4.802-13.95-9.048-20.974-12.936c-22.39-12.344-44.011-21.35-65.439-24.086c-5.671-1.147-11.283-2.588-16.872-4.177&#10;&#9;&#9;&#9;&#9;c-0.759-0.209-1.511-0.417-2.269-0.629c-35.386-7.365-71.473-25.725-108.835-35.52c-25.103-6.581-48.962-9.246-68.608-4.161&#10;&#9;&#9;&#9;&#9;c-0.609,0.158-1.216,0.318-1.817,0.49c-7.032,2.014-14.208,4.709-20.638,7.998"/>
        <path style="fill: none; fill-rule: nonzero; paint-order: fill markers; stroke-width: 2px; stroke-miterlimit: 24.58; stroke: rgb(255, 255, 255);" d="&#10;&#9;&#9;&#9;&#9;M754.299,236.928c-11.303,1.394-23.12,4.747-33.53,8.123c-4.61,1.493-9.159,3.111-13.636,4.843&#10;&#9;&#9;&#9;&#9;c-25.884,10.008-49.896,24.159-73.978,38.974c-1.405,0.863-2.874,1.78-4.41,2.736&#10;&#9;&#9;&#9;&#9;c-78.915,49.126-146.165,106.693-192.078,120.097c-0.001,0-0.008,0-0.009,0c-26.044,8.908-52.766,13.658-79.154,9.816&#10;&#9;&#9;&#9;&#9;c-27.895-4.062-46.806-20.176-74.817-37.298c-6.872-4.201-13.775-8.195-20.564-12.168c-21.511-12.549-41.02-25.558-60.095-34.367&#10;&#9;&#9;&#9;&#9;c-5.16-2.782-10.258-5.756-15.344-8.76c-0.688-0.401-1.368-0.796-2.056-1.195c-31.308-15.853-64.299-38.204-100.923-49.206&#10;&#9;&#9;&#9;&#9;c-23.376-7.023-46.498-8.813-66.346-3.293c-0.586,0.163-1.17,0.328-1.751,0.503c-6.801,2.048-13.722,4.74-19.912,7.98"/>
        <path style="fill: none; fill-rule: nonzero; paint-order: fill markers; stroke-width: 2px; stroke-miterlimit: 24.58; stroke: rgb(255, 255, 255);" d="&#10;&#9;&#9;&#9;&#9;M754.299,227.68c-11.761,1.556-24.079,5.186-34.793,8.644c-4.788,1.543-9.518,3.201-14.187,4.965&#10;&#9;&#9;&#9;&#9;c-27.018,10.204-52.289,24.135-77.424,39.472c-1.5,0.914-3.033,1.859-4.597,2.829c-90.42,55.84-155.4,115.089-197.042,129.654&#10;&#9;&#9;&#9;&#9;c0,0-0.009,0-0.009,0c-26.569,10.16-54.127,15.959-82.268,13.957c-27.888-1.984-52.348-11.746-79.753-26.129&#10;&#9;&#9;&#9;&#9;c-6.843-3.591-13.601-7.341-20.154-11.401c-20.633-12.753-38.03-29.765-54.75-44.649c-4.649-4.417-9.233-8.924-13.816-13.343&#10;&#9;&#9;&#9;&#9;c-0.617-0.592-1.226-1.176-1.843-1.762c-27.229-24.342-57.153-50.609-93.011-62.893c-21.666-7.422-44.04-8.4-64.083-2.425&#10;&#9;&#9;&#9;&#9;c-0.562,0.168-1.125,0.338-1.685,0.516c-6.57,2.082-13.235,4.77-19.185,7.962"/>
        <path style="fill: none; fill-rule: nonzero; paint-order: fill markers; stroke-width: 2px; stroke-miterlimit: 24.58; stroke: rgb(255, 255, 255);" d="&#10;&#9;&#9;&#9;&#9;M754.299,218.431c-12.22,1.718-25.037,5.626-36.056,9.165c-35.468,11.378-68.132,28.097-100.393,47.979&#10;&#9;&#9;&#9;&#9;c-101.809,62.742-164.634,123.486-202.006,139.21h-0.01c-27.094,11.413-55.525,18.11-85.382,18.099&#10;&#9;&#9;&#9;&#9;c-35.039-0.012-73.279-5.153-104.434-25.592c-19.755-12.957-35.039-33.973-49.406-54.93c-4.138-6.052-8.208-12.093-12.288-17.926&#10;&#9;&#9;&#9;&#9;c-0.547-0.784-1.083-1.556-1.63-2.329c-23.151-32.831-50.05-62.93-85.099-76.579c-19.979-7.781-41.588-8-61.821-1.556&#10;&#9;&#9;&#9;&#9;c-6.861,2.19-13.881,5.061-20.078,8.473"/>
      </g>
      <g style="clip-path:url(#SVGID_00000114763362021417523800000001237877017077462406_);"/>
      <g style="clip-path:url(#SVGID_00000114763362021417523800000001237877017077462406_);">
        <path style="fill: none; fill-rule: nonzero; paint-order: fill markers; stroke-width: 2px; stroke-miterlimit: 24.58; stroke: rgb(255, 255, 255);" d="&#10;&#9;&#9;&#9;&#9;M-11.418,259.646c12.306,24.044,38.816,22.922,56.51,18.617c24.933-6.067,49.273-23.291,67.054-49.609&#10;&#9;&#9;&#9;&#9;c41.328-61.169,81.806-126.594,140.96-126.302c31.225,0.154,67.833,32.299,94.147,55.432&#10;&#9;&#9;&#9;&#9;c25.758,22.644,40.218,56.818,83.178,85.92c24.799,16.799,41.372-50.21,66.726-65.133c25.485-15.001,60.951,11.817,85.097-6.987&#10;&#9;&#9;&#9;&#9;c27.741-21.604,55.936-43.462,87.142-50.546c32.631-7.408,64.645,3.843,92.284,30.979"/>
        <path style="fill: none; fill-rule: nonzero; paint-order: fill markers; stroke-width: 2px; stroke-miterlimit: 24.58; stroke: rgb(255, 255, 255);" d="&#10;&#9;&#9;&#9;&#9;M-11.437,265.795c12.91,23.587,39.283,22.756,57.577,18.19c24.992-6.19,49.595-23.514,68.246-49.973&#10;&#9;&#9;&#9;&#9;c22.031-31.322,41.904-65.216,65.031-89.514c22.342-23.527,47.541-39.831,76.292-39.29c30.984,0.568,66.115,32.987,91.565,57.059&#10;&#9;&#9;&#9;&#9;c24.953,23.689,39.282,58.296,81.249,86.324c24.707,16.391,43.101-45.648,69.381-60.302c7.29-4.065,15.286-5.12,23.563-4.946&#10;&#9;&#9;&#9;&#9;c21.04,0.473,43.385,8.34,60.34-5.68c7.971-6.615,15.999-13.206,24.235-19.281c19.906-14.694,40.59-27.305,62.782-32.467&#10;&#9;&#9;&#9;&#9;c32.633-7.576,64.866,3.305,92.888,31.008"/>
        <path style="fill: none; fill-rule: nonzero; paint-order: fill markers; stroke-width: 2px; stroke-miterlimit: 24.58; stroke: rgb(255, 255, 255);" d="&#10;&#9;&#9;&#9;&#9;M-11.456,271.944c13.513,23.131,39.75,22.591,58.645,17.764c25.051-6.313,49.916-23.737,69.438-50.338&#10;&#9;&#9;&#9;&#9;c22.935-31.372,41.775-66.779,64.738-91.228c22.415-23.968,48.36-41.018,76.949-40.077c30.742,0.982,64.397,33.675,88.984,58.686&#10;&#9;&#9;&#9;&#9;c24.149,24.734,38.266,59.896,79.32,86.728c24.568,16.057,44.82-41.095,72.036-55.472c7.396-3.907,15.418-5.107,23.683-5.217&#10;&#9;&#9;&#9;&#9;c20.951-0.219,42.457,5.485,59.026-9.049c7.811-6.898,15.699-13.726,23.897-19.88c19.858-14.922,40.67-27.755,62.994-33.071&#10;&#9;&#9;&#9;&#9;c32.634-7.744,65.086,2.768,93.493,31.037"/>
        <path style="fill: none; fill-rule: nonzero; paint-order: fill markers; stroke-width: 2px; stroke-miterlimit: 24.58; stroke: rgb(255, 255, 255);" d="&#10;&#9;&#9;&#9;&#9;M-11.476,278.093c14.116,22.675,40.207,22.382,59.713,17.337c25.096-6.491,50.238-23.96,70.629-50.703&#10;&#9;&#9;&#9;&#9;c23.838-31.423,41.646-68.341,64.444-92.941c22.488-24.408,49.179-42.204,77.606-40.865&#10;&#9;&#9;&#9;&#9;c30.501,1.397,62.741,34.308,86.402,60.313c23.405,25.724,37.299,61.424,77.391,87.132c24.456,15.682,46.53-36.552,74.691-50.642&#10;&#9;&#9;&#9;&#9;c7.499-3.752,15.55-5.094,23.803-5.488c20.862-0.912,41.565,2.667,57.712-12.418c7.668-7.163,15.398-14.247,23.56-20.479&#10;&#9;&#9;&#9;&#9;c19.81-15.15,40.75-28.204,63.206-33.674c32.636-7.912,65.307,2.23,94.097,31.066"/>
        <path style="fill: none; fill-rule: nonzero; paint-order: fill markers; stroke-width: 2px; stroke-miterlimit: 24.58; stroke: rgb(255, 255, 255);" d="&#10;&#9;&#9;&#9;&#9;M-11.495,284.242c14.719,22.218,40.671,22.207,60.781,16.911c25.152-6.624,50.559-24.183,71.821-51.067&#10;&#9;&#9;&#9;&#9;c24.742-31.474,41.517-69.904,64.15-94.655c22.56-24.848,49.998-43.391,78.263-41.653c30.259,1.811,61.039,34.986,83.82,61.94&#10;&#9;&#9;&#9;&#9;c22.617,26.76,36.338,62.945,75.462,87.537c24.348,15.304,48.232-32.02,77.346-45.811c7.6-3.6,15.68-5.101,23.924-5.758&#10;&#9;&#9;&#9;&#9;c20.769-1.654,40.646-0.181,56.397-15.787c7.512-7.443,15.098-14.767,23.222-21.078c19.762-15.379,40.83-28.653,63.418-34.277&#10;&#9;&#9;&#9;&#9;c32.638-8.08,65.527,1.692,94.701,31.096"/>
        <path style="fill: none; fill-rule: nonzero; paint-order: fill markers; stroke-width: 2px; stroke-miterlimit: 24.58; stroke: rgb(255, 255, 255);" d="&#10;&#9;&#9;&#9;&#9;M-11.514,290.39c15.323,21.762,41.136,22.034,61.848,16.485c25.209-6.755,50.881-24.406,73.013-51.432&#10;&#9;&#9;&#9;&#9;c25.645-31.525,41.438-71.421,63.856-96.369c22.684-25.243,50.817-44.577,78.92-42.441c30.018,2.225,59.335,35.669,81.238,63.567&#10;&#9;&#9;&#9;&#9;c21.826,27.799,35.382,64.459,73.532,87.941c24.243,14.922,49.927-27.498,80.001-40.981c7.699-3.452,15.811-5.091,24.044-6.029&#10;&#9;&#9;&#9;&#9;c20.677-2.354,39.726-3.032,55.083-19.156c7.356-7.724,14.798-15.288,22.885-21.677c19.714-15.607,40.91-29.103,63.63-34.881&#10;&#9;&#9;&#9;&#9;c32.64-8.248,65.748,1.155,95.306,31.125"/>
        <path style="fill: none; fill-rule: nonzero; paint-order: fill markers; stroke-width: 2px; stroke-miterlimit: 24.58; stroke: rgb(255, 255, 255);" d="&#10;&#9;&#9;&#9;&#9;M-11.533,296.539c15.926,21.305,41.602,21.863,62.916,16.058c25.267-6.882,51.203-24.629,74.205-51.797&#10;&#9;&#9;&#9;&#9;c26.549-31.575,41.313-72.98,63.562-98.082c22.761-25.68,51.636-45.764,79.577-43.229c29.777,2.639,57.627,36.355,78.657,65.193&#10;&#9;&#9;&#9;&#9;c21.032,28.842,34.433,65.964,71.603,88.345c24.141,14.536,51.617-22.986,82.656-36.151c7.796-3.307,15.942-5.08,24.165-6.299&#10;&#9;&#9;&#9;&#9;c20.585-3.051,38.805-5.885,53.768-22.525c7.2-8.006,14.498-15.809,22.548-22.276c19.666-15.836,40.99-29.552,63.842-35.484&#10;&#9;&#9;&#9;&#9;c32.642-8.416,65.969,0.617,95.91,31.154"/>
        <path style="fill: none; fill-rule: nonzero; paint-order: fill markers; stroke-width: 2px; stroke-miterlimit: 24.58; stroke: rgb(255, 255, 255);" d="&#10;&#9;&#9;&#9;&#9;M-11.552,302.688c16.529,20.849,42.068,21.695,63.983,15.632c25.325-7.006,51.524-24.852,75.396-52.161&#10;&#9;&#9;&#9;&#9;c27.452-31.626,41.186-74.541,63.269-99.796c22.837-26.118,52.455-46.95,80.234-44.017c29.535,3.053,55.916,37.044,76.075,66.82&#10;&#9;&#9;&#9;&#9;c20.234,29.888,33.49,67.46,69.674,88.749c24.042,14.145,53.3-18.486,85.311-31.321c7.892-3.164,16.073-5.068,24.285-6.57&#10;&#9;&#9;&#9;&#9;c20.493-3.746,37.881-8.74,52.454-25.894c7.042-8.289,14.198-16.329,22.21-22.876c19.617-16.064,41.07-30.001,64.053-36.087&#10;&#9;&#9;&#9;&#9;c32.644-8.584,66.189,0.079,96.514,31.184"/>
        <path style="fill: none; fill-rule: nonzero; paint-order: fill markers; stroke-width: 2px; stroke-miterlimit: 24.58; stroke: rgb(255, 255, 255);" d="&#10;&#9;&#9;&#9;&#9;M-11.572,308.837c17.132,20.393,42.535,21.528,65.051,15.206c25.384-7.128,51.846-25.075,76.588-52.526&#10;&#9;&#9;&#9;&#9;c28.356-31.677,41.058-76.104,62.975-101.51c22.911-26.558,53.275-48.137,80.891-44.804&#10;&#9;&#9;&#9;&#9;c29.294,3.467,54.201,37.735,73.493,68.447c19.433,30.936,32.552,68.948,67.745,89.154c23.947,13.749,54.979-13.998,87.966-26.49&#10;&#9;&#9;&#9;&#9;c7.987-3.025,16.204-5.056,24.405-6.84c20.402-4.439,36.955-11.596,51.139-29.263c6.883-8.573,13.897-16.85,21.873-23.475&#10;&#9;&#9;&#9;&#9;c19.569-16.293,41.151-30.45,64.265-36.69c32.646-8.752,66.41-0.458,97.119,31.213"/>
        <path style="fill: none; fill-rule: nonzero; paint-order: fill markers; stroke-width: 2px; stroke-miterlimit: 24.58; stroke: rgb(255, 255, 255);" d="&#10;&#9;&#9;&#9;&#9;M-11.591,314.986c17.736,19.936,43.003,21.364,66.119,14.779c25.444-7.248,52.167-25.298,77.78-52.891&#10;&#9;&#9;&#9;&#9;c29.259-31.727,40.927-77.668,62.681-103.223c22.983-27,54.094-49.323,81.548-45.592c29.052,3.882,52.482,38.429,70.911,70.074&#10;&#9;&#9;&#9;&#9;c18.628,31.987,31.621,70.426,65.815,89.558c23.855,13.347,56.654-9.521,90.621-21.66c8.08-2.888,16.335-5.042,24.526-7.111&#10;&#9;&#9;&#9;&#9;c20.311-5.13,36.027-14.454,49.825-32.632c6.723-8.857,13.597-17.37,21.536-24.074c19.521-16.521,41.23-30.9,64.477-37.293&#10;&#9;&#9;&#9;&#9;c32.647-8.92,66.63-0.996,97.723,31.242"/>
        <path style="fill: none; fill-rule: nonzero; paint-order: fill markers; stroke-width: 2px; stroke-miterlimit: 24.58; stroke: rgb(255, 255, 255);" d="&#10;&#9;&#9;&#9;&#9;M-11.61,321.135c18.339,19.48,43.471,21.202,67.187,14.353c25.504-7.365,52.489-25.521,78.972-53.255&#10;&#9;&#9;&#9;&#9;c30.163-31.778,40.795-79.234,62.387-104.937c23.053-27.443,54.913-50.51,82.205-46.38c28.811,4.296,50.76,39.125,68.33,71.701&#10;&#9;&#9;&#9;&#9;c17.819,33.039,30.695,71.894,63.886,89.962c23.768,12.938,58.326-5.056,93.276-16.83c8.173-2.753,16.467-5.028,24.646-7.382&#10;&#9;&#9;&#9;&#9;c20.221-5.819,35.097-17.314,48.51-36.001c6.563-9.143,13.297-17.891,21.198-24.673c19.473-16.75,41.311-31.349,64.689-37.897&#10;&#9;&#9;&#9;&#9;c32.649-9.088,66.851-1.533,98.327,31.271"/>
        <path style="fill: none; fill-rule: nonzero; paint-order: fill markers; stroke-width: 2px; stroke-miterlimit: 24.58; stroke: rgb(255, 255, 255);" d="&#10;&#9;&#9;&#9;&#9;M-11.629,327.283c18.942,19.023,43.94,21.042,68.254,13.927c25.565-7.481,52.811-25.744,80.164-53.62&#10;&#9;&#9;&#9;&#9;c31.066-31.829,40.613-80.841,62.094-106.651c23.068-27.931,55.732-51.697,82.862-47.168&#10;&#9;&#9;&#9;&#9;c28.569,4.71,49.034,39.821,65.748,73.328c17.007,34.093,29.774,73.352,61.957,90.366c23.684,12.522,59.995-0.602,95.931-12&#10;&#9;&#9;&#9;&#9;c8.266-2.622,16.599-5.013,24.766-7.652c20.131-6.505,34.165-20.175,47.196-39.37c6.401-9.429,12.997-18.412,20.861-25.272&#10;&#9;&#9;&#9;&#9;c19.425-16.978,41.391-31.798,64.901-38.5c32.651-9.256,67.071-2.071,98.932,31.301"/>
        <path style="fill: none; fill-rule: nonzero; paint-order: fill markers; stroke-width: 2px; stroke-miterlimit: 24.58; stroke: rgb(255, 255, 255);" d="&#10;&#9;&#9;&#9;&#9;M-11.648,333.432c19.545,18.567,44.409,20.884,69.322,13.5c25.626-7.595,53.132-25.967,81.355-53.984&#10;&#9;&#9;&#9;&#9;c31.97-31.88,40.484-82.404,61.8-108.364c23.141-28.372,56.551-52.883,83.519-47.955c28.328,5.124,47.304,40.519,63.166,74.955&#10;&#9;&#9;&#9;&#9;c16.19,35.148,28.859,74.798,60.028,90.771c23.605,12.096,61.662,3.84,98.586-7.169c8.358-2.492,16.731-4.997,24.887-7.923&#10;&#9;&#9;&#9;&#9;c20.043-7.19,33.231-23.036,45.881-42.739c6.238-9.715,12.696-18.932,20.523-25.871c19.377-17.207,41.471-32.247,65.113-39.103&#10;&#9;&#9;&#9;&#9;c32.653-9.424,67.292-2.609,99.536,31.33"/>
        <path style="fill: none; fill-rule: nonzero; paint-order: fill markers; stroke-width: 2px; stroke-miterlimit: 24.58; stroke: rgb(255, 255, 255);" d="&#10;&#9;&#9;&#9;&#9;M-11.668,339.581c20.149,18.111,44.891,20.768,70.39,13.074c25.701-7.666,53.454-26.19,82.547-54.349&#10;&#9;&#9;&#9;&#9;c32.873-31.93,40.354-83.966,61.506-110.078c23.214-28.812,57.37-54.07,84.176-48.743c28.086,5.538,45.503,41.246,60.584,76.582&#10;&#9;&#9;&#9;&#9;c15.3,36.232,27.949,76.233,58.099,91.175c23.53,11.661,63.327,8.272,101.241-2.339c8.45-2.365,16.87-4.966,25.007-8.193&#10;&#9;&#9;&#9;&#9;c19.97-7.838,32.255-25.922,44.567-46.108c6.054-10.013,12.396-19.453,20.186-26.47c19.329-17.435,41.551-32.697,65.325-39.706&#10;&#9;&#9;&#9;&#9;c32.655-9.592,67.512-3.146,100.14,31.359"/>
        <path style="fill: none; fill-rule: nonzero; paint-order: fill markers; stroke-width: 2px; stroke-miterlimit: 24.58; stroke: rgb(255, 255, 255);" d="&#10;&#9;&#9;&#9;&#9;M-11.687,345.73c20.752,17.654,45.359,20.603,71.457,12.648c25.759-7.789,53.775-26.413,83.739-54.714&#10;&#9;&#9;&#9;&#9;c33.777-31.981,40.225-85.528,61.212-111.792c23.286-29.252,58.189-55.256,84.833-49.531&#10;&#9;&#9;&#9;&#9;c27.845,5.953,43.785,41.934,58.003,78.209c14.496,37.277,27.043,77.656,56.169,91.579c23.46,11.214,64.992,12.692,103.896,2.491&#10;&#9;&#9;&#9;&#9;c8.542-2.24,17.002-4.953,25.128-8.464c19.88-8.531,31.328-28.778,43.253-49.477c5.895-10.297,12.096-19.973,19.849-27.069&#10;&#9;&#9;&#9;&#9;c19.281-17.664,41.631-33.146,65.536-40.31c32.656-9.76,67.733-3.684,100.744,31.389"/>
        <path style="fill: none; fill-rule: nonzero; paint-order: fill markers; stroke-width: 2px; stroke-miterlimit: 24.58; stroke: rgb(255, 255, 255);" d="&#10;&#9;&#9;&#9;&#9;M-11.706,351.879C9.649,369.077,34.12,372.316,60.819,364.1c25.819-7.912,54.097-26.635,84.931-55.078&#10;&#9;&#9;&#9;&#9;c34.68-32.032,40.096-87.091,60.918-113.505c23.359-29.693,59.009-56.443,85.49-50.319c27.603,6.367,42.068,42.622,55.421,79.836&#10;&#9;&#9;&#9;&#9;c13.691,38.322,26.141,79.066,54.24,91.983c23.394,10.754,66.656,17.101,106.551,7.322c8.634-2.117,17.134-4.94,25.248-8.734&#10;&#9;&#9;&#9;&#9;c19.791-9.223,30.401-31.633,41.938-52.846c5.735-10.58,11.795-20.494,19.511-27.668c19.232-17.892,41.711-33.595,65.748-40.913&#10;&#9;&#9;&#9;&#9;c32.658-9.928,67.953-4.221,101.349,31.418"/>
        <path style="fill: none; fill-rule: nonzero; paint-order: fill markers; stroke-width: 2px; stroke-miterlimit: 24.58; stroke: rgb(255, 255, 255);" d="&#10;&#9;&#9;&#9;&#9;M-11.725,358.028c42.773,32.611,94.565,15.091,159.715-43.648c35.584-32.082,39.967-88.653,60.624-115.219&#10;&#9;&#9;&#9;&#9;c23.432-30.133,59.828-57.629,86.147-51.107c55.595,13.778,51.85,150.369,105.15,173.85&#10;&#9;&#9;&#9;&#9;c28.314,12.473,88.509,26.331,134.574,3.147c29.552-14.874,36.761-62.723,59.797-84.482&#10;&#9;&#9;&#9;&#9;C639.391,197.962,703.42,167.5,762.196,230.5"/>
        <path style="fill: none; fill-rule: nonzero; paint-order: fill markers; stroke-width: 2px; stroke-miterlimit: 24.58; stroke: rgb(255, 255, 255);" d="&#10;&#9;&#9;&#9;&#9;M-11.706,338.938c42.776,40.249,96.196,20.165,162.351-34.757c36.131-29.997,42.539-80.201,62.964-101.709&#10;&#9;&#9;&#9;&#9;c23.598-24.85,60.026-59.84,89.052-51.866c55.395,15.219,48.688,154.494,101.9,175.592c29.934,11.868,89.811,23.451,133.52-0.79&#10;&#9;&#9;&#9;&#9;c33.31-18.474,29.53-67.909,53.994-93.478c43.374-45.332,111.014-74.237,170.089-12.403"/>
        <path style="fill: none; fill-rule: nonzero; paint-order: fill markers; stroke-width: 2px; stroke-miterlimit: 24.58; stroke: rgb(255, 255, 255);" d="&#10;&#9;&#9;&#9;&#9;M-11.687,319.848c42.778,47.887,97.826,25.238,164.987-25.866c36.678-27.912,45.024-71.6,65.304-88.2&#10;&#9;&#9;&#9;&#9;c23.707-19.405,60.222-62.096,91.956-52.624c55.223,16.482,45.626,158.485,98.65,177.333&#10;&#9;&#9;&#9;&#9;c31.603,11.234,90.925,20.109,132.466-4.727c37.105-22.184,22.333-72.978,48.19-102.473&#10;&#9;&#9;&#9;&#9;c41.855-47.741,112.891-75.405,172.265-14.737"/>
        <path style="fill: none; fill-rule: nonzero; paint-order: fill markers; stroke-width: 2px; stroke-miterlimit: 24.58; stroke: rgb(255, 255, 255);" d="&#10;&#9;&#9;&#9;&#9;M-11.668,300.759c42.78,55.524,99.456,30.311,167.622-16.976c37.225-25.827,47.323-62.835,67.644-74.691&#10;&#9;&#9;&#9;&#9;c23.648-13.797,60.422-64.396,94.861-53.383c55.079,17.612,42.645,162.348,95.401,179.075&#10;&#9;&#9;&#9;&#9;c33.314,10.563,91.893,16.455,131.411-8.663c40.901-25.997,15.19-77.952,42.387-111.468&#10;&#9;&#9;&#9;&#9;c40.517-49.931,114.769-76.573,174.441-17.071"/>
        <path style="fill: none; fill-rule: nonzero; paint-order: fill markers; stroke-width: 2px; stroke-miterlimit: 24.58; stroke: rgb(255, 255, 255);" d="&#10;&#9;&#9;&#9;&#9;M-11.648,281.669c42.783,63.162,101.086,35.384,170.258-8.085c37.772-23.742,49.304-53.957,69.984-61.181&#10;&#9;&#9;&#9;&#9;c23.267-8.128,60.629-66.738,97.766-54.142c54.959,18.641,39.73,166.092,92.151,180.817c35.06,9.848,92.748,12.582,130.357-12.6&#10;&#9;&#9;&#9;&#9;c44.674-29.911,8.113-82.845,36.583-120.464c39.329-51.966,116.646-77.742,176.617-19.405"/>
        <path style="fill: none; fill-rule: nonzero; paint-order: fill markers; stroke-width: 2px; stroke-miterlimit: 24.58; stroke: rgb(255, 255, 255);" d="&#10;&#9;&#9;&#9;&#9;M-11.629,262.58c42.785,70.8,102.716,40.457,172.894,0.806c38.319-21.657,52.606-38.892,72.324-47.671&#10;&#9;&#9;&#9;&#9;c20.673-9.205,60.847-69.122,100.67-54.901c54.862,19.591,36.865,169.726,88.901,182.558&#10;&#9;&#9;&#9;&#9;c36.836,9.084,93.512,8.551,129.303-16.536c48.402-33.928,1.11-87.671,30.78-129.459c38.264-53.891,118.523-78.91,178.793-21.739&#10;&#9;&#9;&#9;&#9;"/>
        <path style="fill: none; fill-rule: nonzero; paint-order: fill markers; stroke-width: 2px; stroke-miterlimit: 24.58; stroke: rgb(255, 255, 255);" d="&#10;&#9;&#9;&#9;&#9;M-11.61,243.49c42.788,78.437,104.346,45.53,175.53,9.696c38.866-19.572,52.59-29.232,74.663-34.162&#10;&#9;&#9;&#9;&#9;c21.014-4.693,61.078-71.546,103.575-55.66c54.785,20.479,34.038,173.26,85.651,184.3c38.635,8.264,94.204,4.405,128.248-20.473&#10;&#9;&#9;&#9;&#9;c52.07-38.05-5.818-92.441,24.976-138.454c37.304-55.74,120.4-80.078,180.969-24.073"/>
        <path style="fill: none; fill-rule: nonzero; paint-order: fill markers; stroke-width: 2px; stroke-miterlimit: 24.58; stroke: rgb(255, 255, 255);" d="&#10;&#9;&#9;&#9;&#9;M-11.591,224.401c42.79,86.075,105.976,50.604,178.165,18.587c39.413-17.487,53.504-28.694,77.003-20.652&#10;&#9;&#9;&#9;&#9;c20.335,6.959,61.324-74.008,106.48-56.419c54.726,21.317,31.236,176.702,82.401,186.041&#10;&#9;&#9;&#9;&#9;c40.452,7.384,94.836,0.173,127.194-24.41c55.66-42.284-12.668-97.162,19.173-147.45c36.43-57.534,122.278-81.246,183.145-26.407&#10;&#9;&#9;&#9;&#9;"/>
        <path style="fill: none; fill-rule: nonzero; paint-order: fill markers; stroke-width: 2px; stroke-miterlimit: 24.58; stroke: rgb(255, 255, 255);" d="&#10;&#9;&#9;&#9;&#9;M-11.572,205.311c42.793,93.712,107.606,55.677,180.801,27.478c39.96-15.402,55.111-21.097,79.343-7.143&#10;&#9;&#9;&#9;&#9;c19.514,11.238,61.586-76.509,109.384-57.178c54.685,22.116,28.451,180.061,79.152,187.783&#10;&#9;&#9;&#9;&#9;c42.282,6.44,95.417-4.125,126.14-28.346c59.158-46.639-19.442-101.843,13.369-156.445&#10;&#9;&#9;&#9;&#9;c35.629-59.291,124.155-82.414,185.321-28.742"/>
        <path style="fill: none; fill-rule: nonzero; paint-order: fill markers; stroke-width: 2px; stroke-miterlimit: 24.58; stroke: rgb(255, 255, 255);" d="&#10;&#9;&#9;&#9;&#9;M-11.552,186.221c42.795,101.35,109.237,60.75,183.437,36.369c40.507-13.317,57.08-13.665,81.683,6.367&#10;&#9;&#9;&#9;&#9;c18.98,15.454,61.865-79.046,112.289-57.937c54.66,22.883,25.673,183.345,75.902,189.525&#10;&#9;&#9;&#9;&#9;c44.119,5.429,95.954-8.472,125.085-32.283c62.545-51.123-26.141-106.488,7.566-165.44&#10;&#9;&#9;&#9;&#9;c34.892-61.023,126.032-83.582,187.497-31.076"/>
        <path style="fill: none; fill-rule: nonzero; paint-order: fill markers; stroke-width: 2px; stroke-miterlimit: 24.58; stroke: rgb(255, 255, 255);" d="&#10;&#9;&#9;&#9;&#9;M-11.533,167.132c42.798,108.988,110.867,65.823,186.073,45.259c41.054-11.232,59.331-6.225,84.023,19.876&#10;&#9;&#9;&#9;&#9;c18.668,19.734,62.162-81.62,115.194-58.696c54.649,23.623,22.896,186.561,72.652,191.266&#10;&#9;&#9;&#9;&#9;c45.959,4.346,96.453-12.856,124.031-36.22c65.803-55.748-32.768-111.104,1.762-174.436&#10;&#9;&#9;&#9;&#9;c34.207-62.74,127.909-84.751,189.673-33.41"/>
        <path style="fill: none; fill-rule: nonzero; paint-order: fill markers; stroke-width: 2px; stroke-miterlimit: 24.58; stroke: rgb(255, 255, 255);" d="&#10;&#9;&#9;&#9;&#9;M-11.514,148.042c42.8,116.625,112.497,70.896,188.708,54.15c41.601-9.147,61.753,1.302,86.362,33.386&#10;&#9;&#9;&#9;&#9;c18.496,24.113,62.477-84.228,118.099-59.455c54.652,24.341,20.113,189.718,69.402,193.008&#10;&#9;&#9;&#9;&#9;c47.795,3.19,96.917-17.267,122.977-40.156c68.91-60.526-39.324-115.695-4.041-183.431&#10;&#9;&#9;&#9;&#9;c33.57-64.447,129.786-85.919,191.849-35.744"/>
        <path style="fill: none; fill-rule: nonzero; paint-order: fill markers; stroke-width: 2px; stroke-miterlimit: 24.58; stroke: rgb(255, 255, 255);" d="&#10;&#9;&#9;&#9;&#9;M-11.495,128.953c42.802,124.263,114.127,75.97,191.344,63.041c42.148-7.062,64.263,8.93,88.702,46.895&#10;&#9;&#9;&#9;&#9;c18.404,28.589,62.81-86.87,121.003-60.214c54.667,25.041,17.317,192.822,66.152,194.75&#10;&#9;&#9;&#9;&#9;c49.625,1.959,97.347-21.697,121.923-44.093c71.842-65.472-45.814-120.264-9.845-192.426&#10;&#9;&#9;&#9;&#9;c32.973-66.151,131.664-87.087,194.024-38.078"/>
        <path style="fill: none; fill-rule: nonzero; paint-order: fill markers; stroke-width: 2px; stroke-miterlimit: 24.58; stroke: rgb(255, 255, 255);" d="&#10;&#9;&#9;&#9;&#9;M-11.476,109.863c42.805,131.901,115.757,81.043,193.98,71.932c42.695-4.977,66.811,16.646,91.042,60.405&#10;&#9;&#9;&#9;&#9;c18.353,33.144,63.163-89.545,123.908-60.973c54.695,25.727,14.539,198.412,62.902,196.491&#10;&#9;&#9;&#9;&#9;c51.405-2.041,97.747-26.139,120.868-48.03c74.572-70.602-52.24-124.816-15.648-201.422&#10;&#9;&#9;&#9;&#9;c32.411-67.854,133.541-88.255,196.2-40.412"/>
        <path style="fill: none; fill-rule: nonzero; paint-order: fill markers; stroke-width: 2px; stroke-miterlimit: 24.58; stroke: rgb(255, 255, 255);" d="&#10;&#9;&#9;&#9;&#9;M-11.456,90.774c42.807,139.538,117.387,86.116,196.616,80.822c43.242-2.892,69.37,24.432,93.382,73.915&#10;&#9;&#9;&#9;&#9;c18.323,37.759,63.535-92.252,126.813-61.732c54.734,26.399,11.728,200.65,59.653,198.233&#10;&#9;&#9;&#9;&#9;c53.18-2.682,98.116-30.588,119.814-51.967c77.067-75.933-58.605-129.353-21.452-210.417&#10;&#9;&#9;&#9;&#9;c31.881-69.561,135.418-89.423,198.376-42.746"/>
        <path style="fill: none; fill-rule: nonzero; paint-order: fill markers; stroke-width: 2px; stroke-miterlimit: 24.58; stroke: rgb(255, 255, 255);" d="&#10;&#9;&#9;&#9;&#9;M-11.437,71.684c42.81,147.176,119.018,91.189,199.251,89.713c43.789-0.807,71.929,32.273,95.722,87.424&#10;&#9;&#9;&#9;&#9;c18.301,42.421,63.926-94.99,129.717-62.491c54.783,27.062,8.813,201.874,56.403,199.975&#10;&#9;&#9;&#9;&#9;c55.023-2.196,98.455-35.036,118.76-55.903c79.289-81.484-64.912-133.877-27.255-219.413&#10;&#9;&#9;&#9;&#9;c31.377-71.271,137.296-90.592,200.552-45.08"/>
        <path style="fill: none; fill-rule: nonzero; paint-order: fill markers; stroke-width: 2px; stroke-miterlimit: 24.58; stroke: rgb(255, 255, 255);" d="&#10;&#9;&#9;&#9;&#9;M-11.418,52.595c42.812,154.813,120.648,96.262,201.887,98.604c44.336,1.278,74.48,40.155,98.061,100.934&#10;&#9;&#9;&#9;&#9;c18.281,47.117,64.338-97.759,132.622-63.25c54.843,27.716,5.927,204.822,53.153,201.716&#10;&#9;&#9;&#9;&#9;c56.778-3.734,98.762-39.478,117.705-59.84c81.195-87.275-71.165-138.391-33.059-228.408&#10;&#9;&#9;&#9;&#9;c30.898-72.989,139.173-91.76,202.728-47.414"/>
      </g>
      <g style="clip-path:url(#SVGID_00000114763362021417523800000001237877017077462406_);">
        <g>
          <defs>
            <ellipse id="SVGID_00000119811396626984331020000012158089239476612746_" transform="matrix(0.9791 -0.2035 0.2035 0.9791 -66.8481 161.2332)" cx="750.5" cy="405.636" rx="76.994" ry="76.994"/>
          </defs>
          <clipPath id="SVGID_00000114049338932232762190000008889731856890405037_">
            <ellipse transform="matrix(0.9791000485420227, -0.20350000262260437, 0.20350000262260437, 0.9791000485420227, -66.84809975099711, 161.2332024758041)" cx="750.5" cy="405.636" rx="76.994" ry="76.994" style="overflow: visible;"/>
          </clipPath>
          <g style="clip-path:url(#SVGID_00000114049338932232762190000008889731856890405037_);">
            <line style="fill: none; fill-rule: nonzero; paint-order: fill markers; stroke-width: 2px; stroke-miterlimit: 24.58; stroke: rgb(255, 255, 255);" x1="638.322" y1="347.943" x2="818.803" y2="299.583"/>
            <line style="fill: none; fill-rule: nonzero; paint-order: fill markers; stroke-width: 2px; stroke-miterlimit: 24.58; stroke: rgb(255, 255, 255);" x1="679.616" y1="502.056" x2="860.097" y2="453.696"/>
            <line style="fill: none; fill-rule: nonzero; paint-order: fill markers; stroke-width: 2px; stroke-miterlimit: 24.58; stroke: rgb(255, 255, 255);" x1="682.197" y1="511.688" x2="862.678" y2="463.328"/>
          </g>
        </g>
        <g>
          <defs>
            <circle id="SVGID_00000027595410607935156630000017269546949274465188_" cx="-7.06" cy="500" r="76.994"/>
          </defs>
          <clipPath id="SVGID_00000183246398497283384120000013726490133099893940_">
            <circle cx="-7.06" cy="500" r="76.994" style="overflow: visible;"/>
          </clipPath>
          <g style="clip-path:url(#SVGID_00000183246398497283384120000013726490133099893940_);">
            <line style="fill: none; fill-rule: nonzero; paint-order: fill markers; stroke-width: 2px; stroke-miterlimit: 24.58; stroke: rgb(255, 255, 255);" x1="-119.239" y1="442.308" x2="61.243" y2="393.948"/>
            <line style="fill: none; fill-rule: nonzero; paint-order: fill markers; stroke-width: 2px; stroke-miterlimit: 24.58; stroke: rgb(255, 255, 255);" x1="-116.658" y1="451.94" x2="63.824" y2="403.58"/>
            <line style="fill: none; fill-rule: nonzero; paint-order: fill markers; stroke-width: 2px; stroke-miterlimit: 24.58; stroke: rgb(255, 255, 255);" x1="-90.849" y1="548.26" x2="89.633" y2="499.9"/>
            <line style="fill: none; fill-rule: nonzero; paint-order: fill markers; stroke-width: 2px; stroke-miterlimit: 24.58; stroke: rgb(255, 255, 255);" x1="-88.268" y1="557.892" x2="92.214" y2="509.532"/>
            <line style="fill: none; fill-rule: nonzero; paint-order: fill markers; stroke-width: 2px; stroke-miterlimit: 24.58; stroke: rgb(255, 255, 255);" x1="-85.687" y1="567.524" x2="94.795" y2="519.164"/>
            <line style="fill: none; fill-rule: nonzero; paint-order: fill markers; stroke-width: 2px; stroke-miterlimit: 24.58; stroke: rgb(255, 255, 255);" x1="-83.106" y1="577.156" x2="97.376" y2="528.796"/>
            <line style="fill: none; fill-rule: nonzero; paint-order: fill markers; stroke-width: 2px; stroke-miterlimit: 24.58; stroke: rgb(255, 255, 255);" x1="-80.525" y1="586.788" x2="99.956" y2="538.428"/>
            <line style="fill: none; fill-rule: nonzero; paint-order: fill markers; stroke-width: 2px; stroke-miterlimit: 24.58; stroke: rgb(255, 255, 255);" x1="-77.944" y1="596.42" x2="102.537" y2="548.06"/>
            <line style="fill: none; fill-rule: nonzero; paint-order: fill markers; stroke-width: 2px; stroke-miterlimit: 24.58; stroke: rgb(255, 255, 255);" x1="-75.363" y1="606.052" x2="105.118" y2="557.692"/>
          </g>
        </g>
      </g>
    </g>
  </g>
</svg>