<?xml version="1.0" encoding="utf-8"?>
<svg viewBox="35.744 46.51 108.543 34.783" xmlns="http://www.w3.org/2000/svg">
  <path d="M 35.744 63.901 C 35.744 73.507 44.699 81.293 55.744 81.293 C 66.791 81.293 75.744 73.507 75.744 63.901 C 75.744 54.296 66.791 46.51 55.744 46.51 C 44.699 46.51 35.744 54.296 35.744 63.901 M 42.224 75.658 C 38.605 72.51 36.624 68.336 36.624 63.901 C 36.624 59.467 38.605 55.293 42.224 52.145 C 45.845 48.997 50.645 47.275 55.744 47.275 C 60.845 47.275 65.645 48.997 69.264 52.145 C 72.885 55.293 74.864 59.467 74.864 63.901 C 74.864 68.336 72.885 72.51 69.264 75.658 C 65.645 78.806 60.845 80.527 55.744 80.527 C 50.645 80.527 45.845 78.806 42.224 75.658 M 44.445 59.554 C 40.424 63.536 41.205 66.823 41.205 66.823 C 41.205 66.823 42.304 64.562 44.965 62.162 C 46.245 61.067 47.184 60.684 47.824 60.684 C 48.544 60.684 48.885 61.136 48.885 61.554 L 48.885 69.623 C 48.885 70.423 48.285 70.597 47.744 70.58 C 47.285 70.58 46.845 70.441 46.845 70.441 C 49.584 73.867 56.125 74.336 56.125 74.336 L 59.005 71.727 L 59.085 71.727 L 61.744 73.693 C 66.525 71.223 68.845 66.649 68.845 66.649 C 66.744 68.597 65.325 69.067 64.525 69.049 C 63.805 69.049 63.504 68.684 63.504 68.684 C 63.485 68.51 63.384 58.51 63.525 58.51 C 64.365 57.171 67.005 54.441 67.005 54.441 C 62.064 55.293 59.365 58.093 59.365 58.093 C 58.565 57.554 56.925 57.641 56.925 57.641 C 57.685 58.006 58.445 59.049 58.445 59.936 L 58.445 68.51 C 58.445 68.51 56.744 69.78 55.504 69.78 C 54.744 69.78 54.285 69.414 54.024 69.119 C 53.845 68.91 53.744 68.754 53.744 68.754 L 53.744 58.145 C 53.605 58.249 53.384 58.336 53.165 58.336 C 52.885 58.319 52.605 58.214 52.424 57.867 C 52.264 57.606 52.184 57.206 52.184 56.649 C 52.184 54.684 54.744 53.397 54.744 53.397 C 51.485 54.145 48.464 55.588 44.445 59.554" style="transform-origin: 55.744px 63.9015px;"/>
  <text style="font-family: Bahnschrift; font-size: 18px; font-weight: 600; letter-spacing: -1.1px; text-transform: uppercase; word-spacing: -100px; white-space: pre;" x="79.387" y="71.378" transform="matrix(0.9999999999999999, 0, 0, 0.9999999999999999, 0, 2.842170943040401e-14)">UNREAL</text>
</svg>